<?xml version="1.0" encoding="UTF-8"?>
<svg xmlns="http://www.w3.org/2000/svg" xmlns:xlink="http://www.w3.org/1999/xlink" viewBox="0 0 30 30" width="30px" height="30px">
<g id="surface24867464">
<rect x="0" y="0" width="30" height="30" style="fill:rgb(100%,100%,100%);fill-opacity:1;stroke:none;"/>
<path style=" stroke:none;fill-rule:nonzero;fill:rgb(9.019608%,13.725491%,23.529412%);fill-opacity:1;" d="M 6 8 L 6 24 C 6 25.101562 6.898438 26 8 26 L 22 26 C 23.101562 26 24 25.101562 24 24 L 24 8 Z M 24 4 L 18 4 C 18 3.398438 17.601562 3 17 3 L 13 3 C 12.398438 3 12 3.398438 12 4 L 6 4 C 5.398438 4 5 4.398438 5 5 C 5 5.601562 5.398438 6 6 6 L 24 6 C 24.601562 6 25 5.601562 25 5 C 25 4.398438 24.601562 4 24 4 Z M 24 4 "/>
</g>
</svg>
